Coordinates
version=1
nRows=32
nColumns=12
inDegrees=yes

Units are S.I. units (second, meters, Newtons, ...)
Angles are in degrees

endheader
time	SC_y	SC_z	SC_x	AC_y	AC_z	AC_x	GH_y	GH_z	GH_yy	EL_x	PS_y
       0.0              -35.68           38.0          11.37           65.8         -12.74         -1.297           51.2          16.31         -170.8          75.11          129.7
   0.02636              -35.68           38.0          11.38           65.8         -12.74         -1.297          51.17          16.32         -170.7          75.12          129.7
   0.05272              -35.69           38.0          11.39           65.8         -12.73         -1.296          51.14          16.33         -170.7          75.13          129.7
   0.07909              -35.69           38.0           11.4          65.79         -12.73         -1.295          51.11          16.34         -170.6          75.13          129.7
    0.1054              -35.69           38.0          11.41          65.79         -12.73         -1.295          51.08          16.35         -170.6          75.14          129.6
    0.1318              -35.69           38.0          11.42          65.79         -12.72         -1.294          51.05          16.37         -170.5          75.15          129.6
    0.1582              -35.69           38.0          11.43          65.78         -12.72         -1.293          51.01          16.38         -170.5          75.16          129.6
    0.1845               -35.7           38.0          11.44          65.78         -12.71         -1.292          50.97          16.39         -170.4          75.16          129.6
    0.2109               -35.7           38.0          11.45          65.77         -12.71         -1.291          50.93          16.41         -170.3          75.17          129.6
    0.2373               -35.7           38.0          11.46          65.77          -12.7          -1.29          50.88          16.42         -170.3          75.18          129.6
    0.2636              -35.71           38.0          11.47          65.76          -12.7         -1.289          50.83          16.44         -170.2          75.19          129.6
      0.29              -35.71           38.0          11.49          65.75         -12.69         -1.288          50.78          16.46         -170.1          75.21          129.6
    0.3163              -35.71          37.99           11.5          65.75         -12.68         -1.286          50.72          16.48         -170.0          75.22          129.6
    0.3427              -35.72          37.99          11.52          65.74         -12.68         -1.285          50.66           16.5         -169.9          75.23          129.5
    0.3691              -35.72          37.99          11.54          65.73         -12.67         -1.283           50.6          16.52         -169.8          75.25          129.5
    0.3954              -35.72          37.99          11.56          65.72         -12.66         -1.282          50.52          16.55         -169.7          75.26          129.5
    0.4218              -35.73          37.99          11.58          65.72         -12.65          -1.28          50.45          16.57         -169.6          75.28          129.5
    0.4482              -35.73          37.99           11.6          65.71         -12.64         -1.278          50.36           16.6         -169.5           75.3          129.5
    0.4745              -35.74          37.99          11.63          65.69         -12.63         -1.276          50.27          16.64         -169.3          75.32          129.4
    0.5009              -35.75          37.99          11.65          65.68         -12.62         -1.274          50.17          16.67         -169.2          75.34          129.4
    0.5272              -35.75          37.99          11.68          65.67         -12.61         -1.271          50.06          16.71         -169.0          75.37          129.4
    0.5536              -35.76          37.98          11.72          65.66         -12.59         -1.268          49.93          16.75         -168.8          75.39          129.3
      0.58              -35.77          37.98          11.75          65.64         -12.58         -1.265           49.8           16.8         -168.6          75.42          129.3
    0.6063              -35.78          37.98          11.79          65.62         -12.56         -1.262          49.65          16.85         -168.4          75.46          129.3
    0.6327              -35.79          37.98          11.84           65.6         -12.54         -1.258          49.48          16.91         -168.1          75.49          129.2
    0.6591               -35.8          37.97          11.89          65.58         -12.52         -1.253           49.3          16.98         -167.8          75.54          129.2
    0.6854              -35.81          37.97          11.95          65.56         -12.49         -1.249          49.09          17.05         -167.5          75.58          129.1
    0.7118              -35.83          37.97          12.01          65.53         -12.46         -1.243          48.85          17.13         -167.2          75.63          129.1
    0.7381              -35.85          37.96          12.08           65.5         -12.43         -1.237          48.59          17.23         -166.8          75.69          129.0
    0.7645              -35.87          37.96          12.16          65.46          -12.4          -1.23          48.29          17.33         -166.3          75.76          128.9
    0.7909              -35.89          37.96          12.25          65.42         -12.36         -1.222          47.95          17.45         -165.8          75.84          128.8
    0.8172              -35.91          37.95          12.36          65.37         -12.31         -1.213          47.55          17.59         -165.2          75.92          128.7
